<?xml version="1.0" encoding="utf-8"?>
<!-- Generator: Adobe Illustrator 19.1.0, SVG Export Plug-In . SVG Version: 6.00 Build 0)  -->
<svg version="1.1" id="Layer_1" xmlns="http://www.w3.org/2000/svg" xmlns:xlink="http://www.w3.org/1999/xlink" x="0px" y="0px"
	 viewBox="0 0 300 300" style="enable-background:new 0 0 300 300;" xml:space="preserve">
<style type="text/css">
	.st0{fill:#F0523F;}
	.st1{fill:#FFF6DC;}
</style>
<g>
	<path class="st0" d="M300,150.1c0-82.8-67.2-150-150-150S0,67.3,0,150.1c0,71.8,50.4,131.8,117.8,146.5L118,253L98.8,234
		l46.8-164.6c2.2-7.8,6.3-15,11.8-21c4.4-4.7,9.9-8.4,15.9-10.6v0c4.6-1.7,9.6-1.9,14.3-0.6c2.7,0.7,6.7,3.5,9.8,5.9
		c1.8,1.5,3.4,3.3,4.5,5.3l3.5,6.3l4.2,7.7c1.3,2.4,1.9,5.1,1.6,7.9c-1,7.8-4.8,15-10.7,20.3c-0.3,0.3-0.7,0.6-1,0.9
		c-6.9,6.4-14.8,14.3-14.8,14.3c-2.7-1.3,17.7,96.1,17.7,96.1c-36.1,23.4-30.8,46.1-30.8,46.1v50.4C244.3,288,300,225.6,300,150.1z"
		/>
	<path class="st1" d="M202.5,202c0,0-20.4-97.5-17.7-96.1c0,0,7.9-7.9,14.8-14.3c0.3-0.3,0.7-0.6,1-0.9c5.9-5.3,9.7-12.5,10.7-20.3
		c0.3-2.7-0.3-5.5-1.6-7.9l-4.2-7.7l-3.5-6.3c-1.1-2.1-2.6-3.9-4.5-5.3c-3.1-2.4-7.1-5.2-9.8-5.9c-4.7-1.3-9.7-1.1-14.3,0.6v0
		c-6.1,2.2-11.5,5.9-15.9,10.6c-5.6,6-9.6,13.2-11.8,21L98.8,234L118,253l-0.2,43.7c10.4,2.3,21.2,3.5,32.2,3.5
		c7.4,0,14.6-0.5,21.7-1.6v-50.4C171.7,248.1,166.4,225.4,202.5,202z"/>
</g>
<circle class="st1" cx="182.3" cy="66.4" r="30"/>
<circle class="st0" cx="152.2" cy="87.2" r="4.3"/>
<circle class="st0" cx="145.7" cy="110" r="4.3"/>
<ellipse transform="matrix(0.9564 0.292 -0.292 0.9564 28.4523 -35.2768)" class="st1" cx="132.4" cy="77.7" rx="7" ry="10"/>
<ellipse transform="matrix(0.9527 0.3039 -0.3039 0.9527 36.7843 -33.0993)" class="st1" cx="124.7" cy="101.6" rx="7" ry="10"/>
<ellipse transform="matrix(0.9609 0.2768 -0.2768 0.9609 39.969 -27.377)" class="st1" cx="117" cy="127.9" rx="7" ry="10"/>
<ellipse transform="matrix(0.9461 0.324 -0.324 0.9461 55.7864 -27.4406)" class="st1" cx="110.3" cy="153.8" rx="7" ry="10"/>
<ellipse transform="matrix(0.9634 0.268 -0.268 0.9634 51.5972 -20.9646)" class="st1" cx="102.6" cy="178.5" rx="7" ry="10"/>
<ellipse transform="matrix(0.9656 0.26 -0.26 0.9656 56.6929 -17.8745)" class="st1" cx="95.9" cy="205.4" rx="7" ry="10"/>
<circle class="st0" cx="138.4" cy="135.4" r="4.3"/>
<circle class="st0" cx="131.5" cy="159" r="4.3"/>
<circle class="st0" cx="123.9" cy="185.4" r="4.3"/>
<circle class="st0" cx="116.7" cy="211.3" r="4.3"/>
</svg>
